<svg width="2487" height="929" xmlns="http://www.w3.org/2000/svg" xmlns:xlink="http://www.w3.org/1999/xlink" overflow="hidden"><defs><clipPath id="clip0"><rect x="80" y="25" width="2487" height="929"/></clipPath><clipPath id="clip1"><rect x="1649" y="-339" width="909" height="925"/></clipPath><clipPath id="clip2"><rect x="82" y="-525" width="578" height="1849"/></clipPath><clipPath id="clip3"><rect x="82" y="-525" width="578" height="1849"/></clipPath><clipPath id="clip4"><rect x="82" y="-176" width="578" height="1849"/></clipPath><clipPath id="clip5"><rect x="82" y="-176" width="578" height="1849"/></clipPath></defs><g clip-path="url(#clip0)" transform="translate(-80 -25)"><path d="M82.5 41.25 660 41.25 660 250.673 82.5 250.673Z" fill-rule="evenodd"/><path d="M660 41.25 1650 41.25 1650 250.673 660 250.673Z" fill-rule="evenodd"/><path d="M1650 41.25 2557.5 41.25 2557.5 250.673 1650 250.673Z" fill-rule="evenodd"/><path d="M82.5 250.673 660 250.673 660 599.711 82.5 599.711Z" fill-rule="evenodd"/><path d="M660 250.673 1650 250.673 1650 599.711 660 599.711Z" fill="#70AD47" fill-rule="evenodd"/><path d="M1650 250.673 2557.5 250.673 2557.5 599.711 1650 599.711Z" fill="#ED7D31" fill-rule="evenodd"/><path d="M82.5 599.711 660 599.711 660 948.75 82.5 948.75Z" fill-rule="evenodd"/><path d="M660 599.711 1650 599.711 1650 948.75 660 948.75Z" fill="#ED7D31" fill-rule="evenodd"/><path d="M1650 599.711 2557.5 599.711 2557.5 948.75 1650 948.75Z" fill="#70AD47" fill-rule="evenodd"/><path d="M660 38.9583 660 951.042" stroke="#FFFFFF" stroke-width="4.58333" stroke-linejoin="round" stroke-miterlimit="10" fill="none" fill-rule="evenodd"/><path d="M1650 38.9583 1650 951.042" stroke="#FFFFFF" stroke-width="4.58333" stroke-linejoin="round" stroke-miterlimit="10" fill="none" fill-rule="evenodd"/><path d="M80.2083 250.673 2559.79 250.673" stroke="#FFFFFF" stroke-width="13.75" stroke-linejoin="round" stroke-miterlimit="10" fill="none" fill-rule="evenodd"/><path d="M80.2083 599.711 2559.79 599.711" stroke="#FFFFFF" stroke-width="4.58333" stroke-linejoin="round" stroke-miterlimit="10" fill="none" fill-rule="evenodd"/><path d="M82.5 38.9583 82.5 951.042" stroke="#FFFFFF" stroke-width="4.58333" stroke-linejoin="round" stroke-miterlimit="10" fill="none" fill-rule="evenodd"/><path d="M2557.5 38.9583 2557.5 951.042" stroke="#FFFFFF" stroke-width="4.58333" stroke-linejoin="round" stroke-miterlimit="10" fill="none" fill-rule="evenodd"/><path d="M80.2083 41.25 2559.79 41.25" stroke="#FFFFFF" stroke-width="4.58333" stroke-linejoin="round" stroke-miterlimit="10" fill="none" fill-rule="evenodd"/><path d="M80.2083 948.75 2559.79 948.75" stroke="#FFFFFF" stroke-width="4.58333" stroke-linejoin="round" stroke-miterlimit="10" fill="none" fill-rule="evenodd"/><text fill="#FFFFFF" font-family="Calibri,Calibri_MSFontService,sans-serif" font-weight="700" font-size="110" transform="matrix(1 0 0 1 824.473 162)">Predict Benign</text><g clip-path="url(#clip1)"><text fill="#FFFFFF" font-family="Calibri,Calibri_MSFontService,sans-serif" font-weight="700" font-size="110" transform="matrix(1 0 0 1 1697.25 162)">Predict Malignant</text></g><g clip-path="url(#clip2)"><text fill="#FFFFFF" font-family="Calibri,Calibri_MSFontService,sans-serif" font-weight="700" font-size="110" transform="matrix(1 0 0 1 115.5 370)">Actual</text></g><g clip-path="url(#clip3)"><text fill="#FFFFFF" font-family="Calibri,Calibri_MSFontService,sans-serif" font-weight="700" font-size="110" transform="matrix(1 0 0 1 115.5 503)">Benign</text></g><text font-family="Calibri,Calibri_MSFontService,sans-serif" font-weight="400" font-size="110" transform="matrix(1 0 0 1 847.103 463)">True Negative<tspan font-size="110" x="959.555" y="0">False Positive</tspan></text><g clip-path="url(#clip4)"><text fill="#FFFFFF" font-family="Calibri,Calibri_MSFontService,sans-serif" font-weight="700" font-size="110" transform="matrix(1 0 0 1 115.5 719)">Actual </text></g><g clip-path="url(#clip5)"><text fill="#FFFFFF" font-family="Calibri,Calibri_MSFontService,sans-serif" font-weight="700" font-size="110" transform="matrix(1 0 0 1 115.5 852)">Malignant</text></g><text font-family="Calibri,Calibri_MSFontService,sans-serif" font-weight="400" font-size="110" transform="matrix(1 0 0 1 834.568 812)">False Negative<tspan font-size="110" x="984.626" y="0">True Positive</tspan></text></g></svg>