<svg width="2507" height="932" xmlns="http://www.w3.org/2000/svg" xmlns:xlink="http://www.w3.org/1999/xlink" overflow="hidden"><defs><clipPath id="clip0"><rect x="-11" y="-16" width="2507" height="932"/></clipPath><clipPath id="clip1"><rect x="1567" y="-380" width="908" height="925"/></clipPath><clipPath id="clip2"><rect x="0" y="-570" width="578" height="1849"/></clipPath><clipPath id="clip3"><rect x="0" y="-570" width="578" height="1849"/></clipPath><clipPath id="clip4"><rect x="0" y="-225" width="578" height="1849"/></clipPath><clipPath id="clip5"><rect x="0" y="-225" width="578" height="1849"/></clipPath></defs><g clip-path="url(#clip0)" transform="translate(11 16)"><path d="M0 0 577.5 0 577.5 206.447 0 206.447Z" fill-rule="evenodd"/><path d="M577.5 0 1567.5 0 1567.5 206.447 577.5 206.447Z" fill-rule="evenodd"/><path d="M1567.5 0 2475 0 2475 206.447 1567.5 206.447Z" fill-rule="evenodd"/><path d="M0 206.447 577.5 206.447 577.5 550.526 0 550.526Z" fill-rule="evenodd"/><path d="M577.5 206.447 1567.5 206.447 1567.5 550.526 577.5 550.526Z" fill="#70AD47" fill-rule="evenodd"/><path d="M1567.5 206.447 2475 206.447 2475 550.526 1567.5 550.526Z" fill="#ED7D31" fill-rule="evenodd"/><path d="M0 550.526 577.5 550.526 577.5 894.605 0 894.605Z" fill-rule="evenodd"/><path d="M577.5 550.526 1567.5 550.526 1567.5 894.605 577.5 894.605Z" fill="#ED7D31" fill-rule="evenodd"/><path d="M1567.5 550.526 2475 550.526 2475 894.605 1567.5 894.605Z" fill="#70AD47" fill-rule="evenodd"/><path d="M577.5-10.3125 577.5 904.917" stroke="#F2F2F2" stroke-width="10.3125" stroke-linejoin="round" stroke-miterlimit="10" fill="none" fill-rule="evenodd"/><path d="M1567.5-10.3125 1567.5 904.917" stroke="#F2F2F2" stroke-width="10.3125" stroke-linejoin="round" stroke-miterlimit="10" fill="none" fill-rule="evenodd"/><path d="M-10.3125 206.447 2485.31 206.447" stroke="#F2F2F2" stroke-width="10.3125" stroke-linejoin="round" stroke-miterlimit="10" fill="none" fill-rule="evenodd"/><path d="M-10.3125 550.526 2485.31 550.526" stroke="#F2F2F2" stroke-width="10.3125" stroke-linejoin="round" stroke-miterlimit="10" fill="none" fill-rule="evenodd"/><path d="M0-10.3125 0 904.917" stroke="#000000" stroke-width="20.625" stroke-linejoin="round" stroke-miterlimit="10" stroke-opacity="0" fill="none" fill-rule="evenodd"/><path d="M2475-10.3125 2475 904.917" stroke="#000000" stroke-width="20.625" stroke-linejoin="round" stroke-miterlimit="10" stroke-opacity="0" fill="none" fill-rule="evenodd"/><path d="M-10.3125 0 582.656 0" stroke="#000000" stroke-width="20.625" stroke-linejoin="round" stroke-miterlimit="10" stroke-opacity="0" fill="none" fill-rule="evenodd"/><path d="M1562.34 0 2485.31 0" stroke="#000000" stroke-width="20.625" stroke-linejoin="round" stroke-miterlimit="10" stroke-opacity="0" fill="none" fill-rule="evenodd"/><path d="M-10.3125 894.605 2485.31 894.605" stroke="#000000" stroke-width="20.625" stroke-linejoin="round" stroke-miterlimit="10" stroke-opacity="0" fill="none" fill-rule="evenodd"/><text fill="#F2F2F2" font-family="Calibri,Calibri_MSFontService,sans-serif" font-weight="700" font-size="110" transform="matrix(1 0 0 1 741.973 120)">Predict Benign</text><g clip-path="url(#clip1)"><text fill="#F2F2F2" font-family="Calibri,Calibri_MSFontService,sans-serif" font-weight="700" font-size="110" transform="matrix(1 0 0 1 1614.75 120)">Predict Malignant</text></g><g clip-path="url(#clip2)"><text fill="#F2F2F2" font-family="Calibri,Calibri_MSFontService,sans-serif" font-weight="700" font-size="110" transform="matrix(1 0 0 1 33 326)">Actual</text></g><g clip-path="url(#clip3)"><text fill="#F2F2F2" font-family="Calibri,Calibri_MSFontService,sans-serif" font-weight="700" font-size="110" transform="matrix(1 0 0 1 33 459)">Benign</text></g><text font-family="Calibri,Calibri_MSFontService,sans-serif" font-weight="400" font-size="110" transform="matrix(1 0 0 1 764.603 416)">True Negative<tspan font-size="110" x="959.555" y="0">False Positive</tspan></text><g clip-path="url(#clip4)"><text fill="#F2F2F2" font-family="Calibri,Calibri_MSFontService,sans-serif" font-weight="700" font-size="110" transform="matrix(1 0 0 1 33 670)">Actual </text></g><g clip-path="url(#clip5)"><text fill="#F2F2F2" font-family="Calibri,Calibri_MSFontService,sans-serif" font-weight="700" font-size="110" transform="matrix(1 0 0 1 33 803)">Malignant</text></g><text font-family="Calibri,Calibri_MSFontService,sans-serif" font-weight="400" font-size="110" transform="matrix(1 0 0 1 752.068 761)">False Negative<tspan font-size="110" x="984.626" y="0">True Positive</tspan></text></g></svg>